# xmcd
#
# Track frame offsets:
#	150
#	10534
#	16431
#	23053
#
# Disc length: 331 seconds
#
# Revision: 1
# Processed by: cddbd v1.5.2PL0 Copyright (c) Steve Scherf et al.
# Submitted via: audiograbber 1.83.01
#
DISCID=1d014904
DTITLE=Mucus Guts - Demo 2002
DYEAR=2002
DGENRE=Death Grind
TTITLE0=Buttfucked 4 To 5 Times Everyday
TTITLE1=Penetrade Her Maggotinfested Cunt
TTITLE2=Revel In A Mix Of Shit Vomit And Bile
TTITLE3=Perverse Stimulation
EXTD=
EXTT0=
EXTT1=
EXTT2=
EXTT3=
PLAYORDER=
